:FULLY-SPECIFIED
:FORCE-ALL-JOINTS-BE-3DOF
:DEGREES
645
root 5.56562 16.2999 -2.48536 14.0869 13.4395 1.31909
lfemur -14.7113 24.6629 -29.0742
ltibia 36.1499 -0 0
lfoot -37.874 19.508 0.0610614
ltoes 20.2847 -0 0
rfemur -60.2941 -27.9048 34.7625
rtibia 70.1943 -0 0
rfoot -4.39664 1.45527 1.52904
rtoes 2.37957 -0 0
lowerback 0.742739 -4.44234 -5.79917
upperback -1.26185 -6.01304 -0.182498
thorax -1.14195 -2.94997 3.10182
lowerneck -9.76568 -7.00792 -0.404446
upperneck 5.96049 -9.82739 5.34679
head 3.81546 -4.59831 1.14857
lclavicle 8.64424e-14 -1.29162e-14 -1.91922e-30
lhumerus -30.8212 -65.0569 111.909
lradius 70.3069 -0 0
lwrist 23.9985 0 0
lhand -6.02664 2.41114 0.0646294
lfingers 7.12502 -0 0
lthumb 19.804 31.3889 0.0533297
rclavicle 8.64424e-14 -1.29162e-14 -1.91922e-30
rhumerus -27.3398 -6.75585 -73.4477
rradius 72.8652 -0 0
rwrist -29.2731 0 0
rhand -29.3991 -43.9887 -0.00226271
rfingers 7.12502 -0 0
rthumb -2.73714 -73.951 -0.00218419
646
root 5.56143 16.2831 -2.43773 14.3829 12.3817 1.43021
lfemur -14.64 24.6242 -29.2517
ltibia 36.0995 -0 0
lfoot -37.9513 19.2478 0.0579011
ltoes 20.0199 -0 0
rfemur -60.57 -28.2125 35.1377
rtibia 70.1834 -0 0
rfoot -4.92424 0.500624 1.44916
rtoes 2.80485 -0 0
lowerback 0.66745 -4.46853 -5.86271
upperback -1.28863 -6.04557 -0.233921
thorax -1.12368 -2.96557 3.07919
lowerneck -9.78037 -6.96709 -0.429252
upperneck 5.63621 -9.75767 5.43301
head 3.72761 -4.57023 1.19314
lclavicle 8.5749e-14 -1.38277e-14 -1.81995e-30
lhumerus -31.465 -65.7105 112.805
lradius 70.6706 -0 0
lwrist 24.1261 0 0
lhand -5.84402 2.52767 0.0612852
lfingers 7.12502 -0 0
lthumb 19.9797 31.4889 0.0505704
rclavicle 8.5749e-14 -1.38277e-14 -1.81995e-30
rhumerus -28.9869 -7.06769 -73.4018
rradius 71.5419 -0 0
rwrist -28.2579 0 0
rhand -29.3979 -44.6001 -0.00214531
rfingers 7.12502 -0 0
rthumb -2.73597 -74.5624 -0.00207086
647
root 5.55723 16.2663 -2.39009 14.6756 11.3233 1.53534
lfemur -14.5686 24.5857 -29.4292
ltibia 36.049 -0 0
lfoot -38.0286 18.9877 0.0543899
ltoes 19.755 -0 0
rfemur -60.8491 -28.5186 35.5157
rtibia 70.1725 -0 0
rfoot -5.45043 -0.453213 1.3605
rtoes 3.23013 -0 0
lowerback 0.592188 -4.49481 -5.92622
upperback -1.31538 -6.07812 -0.285332
thorax -1.10541 -2.98118 3.05654
lowerneck -9.79508 -6.92626 -0.454066
upperneck 5.31211 -9.68747 5.5188
head 3.63979 -4.54208 1.23766
lclavicle 8.50557e-14 -1.47392e-14 -1.70965e-30
lhumerus -32.1508 -66.3598 113.742
lradius 71.0342 -0 0
lwrist 24.2537 0 0
lhand -5.6614 2.6442 0.0575696
lfingers 7.12502 -0 0
lthumb 20.1554 31.5888 0.0475045
rclavicle 8.50557e-14 -1.47392e-14 -1.70965e-30
rhumerus -30.6355 -7.37808 -73.3468
rradius 70.2186 -0 0
rwrist -27.2428 0 0
rhand -29.3967 -45.2115 -0.0020149
rfingers 7.12502 -0 0
rthumb -2.73479 -75.1739 -0.00194499
648
root 5.55303 16.2495 -2.34245 14.9653 10.2645 1.6346
lfemur -14.4971 24.5474 -29.6067
ltibia 35.9986 -0 0
lfoot -38.1058 18.7276 0.0505279
ltoes 19.4902 -0 0
rfemur -61.1312 -28.8231 35.8964
rtibia 70.1616 -0 0
rfoot -5.97504 -1.40616 1.2631
rtoes 3.65541 -0 0
lowerback 0.516954 -4.52117 -5.98969
upperback -1.3421 -6.11069 -0.33673
thorax -1.08713 -2.99677 3.0339
lowerneck -9.80981 -6.88544 -0.478889
upperneck 4.98819 -9.6168 5.60417
head 3.55199 -4.51386 1.28213
lclavicle 8.43624e-14 -1.56507e-14 -1.58832e-30
lhumerus -32.8819 -67.0043 114.724
lradius 71.3979 -0 0
lwrist 24.3813 0 0
lhand -5.4788 2.76071 0.0534826
lfingers 7.12502 -0 0
lthumb 20.331 31.6888 0.0441322
rclavicle 8.43624e-14 -1.56507e-14 -1.58832e-30
rhumerus -32.2855 -7.68678 -73.2827
rradius 68.8952 -0 0
rwrist -26.2276 0 0
rhand -29.3955 -45.8229 -0.00187152
rfingers 7.12502 -0 0
rthumb -2.73362 -75.7853 -0.00180658
649
root 5.54883 16.2328 -2.29481 15.2522 9.20517 1.72812
lfemur -14.4255 24.5092 -29.7842
ltibia 35.9482 -0 0
lfoot -38.1831 18.4675 0.0463152
ltoes 19.2253 -0 0
rfemur -61.4165 -29.1259 36.28
rtibia 70.1507 -0 0
rfoot -6.49794 -2.35814 1.15699
rtoes 4.08069 -0 0
lowerback 0.441748 -4.54761 -6.05313
upperback -1.36879 -6.14329 -0.388115
thorax -1.06885 -3.01236 3.01125
lowerneck -9.82456 -6.84463 -0.50372
upperneck 4.66443 -9.54565 5.68912
head 3.46421 -4.48558 1.32656
lclavicle 8.36691e-14 -1.65622e-14 -1.45596e-30
lhumerus -33.6619 -67.6436 115.754
lradius 71.7616 -0 0
lwrist 24.5089 0 0
lhand -5.2962 2.87721 0.0490243
lfingers 7.12502 -0 0
lthumb 20.5067 31.7887 0.0404535
rclavicle 8.36691e-14 -1.65622e-14 -1.45596e-30
rhumerus -33.9371 -7.99352 -73.2097
rradius 67.5719 -0 0
rwrist -25.2124 0 0
rhand -29.3942 -46.4343 -0.00171517
rfingers 7.12502 -0 0
rthumb -2.73245 -76.3967 -0.00165565
650
root 5.54463 16.216 -2.24717 15.5366 8.14539 1.81601
lfemur -14.3538 24.4713 -29.9617
ltibia 35.8978 -0 0
lfoot -38.2603 18.2074 0.0417518
ltoes 18.9605 -0 0
rfemur -61.7049 -29.427 36.6664
rtibia 70.1398 -0 0
rfoot -7.01899 -3.30907 1.04222
rtoes 4.50597 -0 0
lowerback 0.36657 -4.57413 -6.11653
upperback -1.39545 -6.17591 -0.439488
thorax -1.05056 -3.02794 2.98859
lowerneck -9.83932 -6.80383 -0.528559
upperneck 4.34086 -9.47402 5.77365
head 3.37647 -4.45723 1.37095
lclavicle 8.29757e-14 -1.74737e-14 -1.31257e-30
lhumerus -34.4944 -68.2773 116.836
lradius 72.1253 -0 0
lwrist 24.6366 0 0
lhand -5.11361 2.99369 0.0441948
lfingers 7.12502 -0 0
lthumb 20.6823 31.8886 0.0364685
rclavicle 8.29757e-14 -1.74737e-14 -1.31257e-30
rhumerus -35.5904 -8.29804 -73.1277
rradius 66.2486 -0 0
rwrist -24.1972 0 0
rhand -29.393 -47.0457 -0.00154587
rfingers 7.12502 -0 0
rthumb -2.73128 -77.0081 -0.00149222
651
root 5.54043 16.1992 -2.19953 15.8186 7.0852 1.89839
lfemur -14.282 24.4336 -30.1392
ltibia 35.8474 -0 0
lfoot -38.3375 17.9473 0.0368379
ltoes 18.6956 -0 0
rfemur -61.9965 -29.7265 37.0558
rtibia 70.1289 -0 0
rfoot -7.53804 -4.25889 0.918823
rtoes 4.93125 -0 0
lowerback 0.291421 -4.60074 -6.1799
upperback -1.42209 -6.20856 -0.490849
thorax -1.03226 -3.04351 2.96593
lowerneck -9.8541 -6.76303 -0.553407
upperneck 4.01746 -9.40193 5.85774
head 3.28875 -4.42881 1.41528
lclavicle 8.22824e-14 -1.83852e-14 -1.15815e-30
lhumerus -35.3838 -68.9048 117.975
lradius 72.489 -0 0
lwrist 24.7642 0 0
lhand -4.93103 3.11015 0.0389941
lfingers 7.12502 -0 0
lthumb 20.858 31.9885 0.0321771
rclavicle 8.22824e-14 -1.83852e-14 -1.15815e-30
rhumerus -37.2454 -8.6001 -73.0368
rradius 64.9252 -0 0
rwrist -23.1821 0 0
rhand -29.3918 -47.6571 -0.00136364
rfingers 7.12502 -0 0
rthumb -2.73011 -77.6195 -0.00131632
652
root 5.53623 16.1824 -2.15189 16.0985 6.02462 1.97534
lfemur -14.2101 24.3961 -30.3166
ltibia 35.797 -0 0
lfoot -38.4147 17.6872 0.0315736
ltoes 18.4308 -0 0
rfemur -62.2914 -30.0242 37.448
rtibia 70.118 -0 0
rfoot -8.05496 -5.20752 0.786846
rtoes 5.35654 -0 0
lowerback 0.2163 -4.62743 -6.24323
upperback -1.4487 -6.24123 -0.542196
thorax -1.01396 -3.05907 2.94326
lowerneck -9.86889 -6.72223 -0.578263
upperneck 3.69423 -9.32937 5.9414
head 3.20106 -4.40032 1.45957
lclavicle 8.15891e-14 -1.92967e-14 -9.92702e-31
lhumerus -36.3345 -69.5256 119.174
lradius 72.8527 -0 0
lwrist 24.8918 0 0
lhand -4.74847 3.2266 0.0334223
lfingers 7.12502 -0 0
lthumb 21.0336 32.0884 0.0275795
rclavicle 8.15891e-14 -1.92967e-14 -9.92702e-31
rhumerus -38.9022 -8.89943 -72.9371
rradius 63.6019 -0 0
rwrist -22.1669 0 0
rhand -29.3906 -48.2684 -0.0011685
rfingers 7.12502 -0 0
rthumb -2.72894 -78.2309 -0.00112795
653
root 5.53203 16.1656 -2.10426 16.3765 4.96368 2.04696
lfemur -14.1381 24.3588 -30.4941
ltibia 35.7466 -0 0
lfoot -38.4918 17.4271 0.0259589
ltoes 18.166 -0 0
rfemur -62.5895 -30.3201 37.8432
rtibia 70.1072 -0 0
rfoot -8.5696 -6.1549 0.646335
rtoes 5.78182 -0 0
lowerback 0.141208 -4.6542 -6.30653
upperback -1.47528 -6.27392 -0.593531
thorax -0.995646 -3.07463 2.92058
lowerneck -9.8837 -6.68145 -0.603127
upperneck 3.37118 -9.25635 6.02463
head 3.1134 -4.37177 1.50381
lclavicle 8.08957e-14 -2.02082e-14 -8.16221e-31
lhumerus -37.3515 -70.139 120.44
lradius 73.2164 -0 0
lwrist 25.0194 0 0
lhand -4.56591 3.34303 0.0274795
lfingers 7.12502 -0 0
lthumb 21.2092 32.1883 0.0226758
rclavicle 8.08957e-14 -2.02082e-14 -8.16221e-31
rhumerus -40.5609 -9.19578 -72.8285
rradius 62.2785 -0 0
rwrist -21.1517 0 0
rhand -29.3894 -48.8798 -0.000960472
rfingers 7.12502 -0 0
rthumb -2.72778 -78.8423 -0.000927144
654
root 5.52782 16.1488 -2.05662 16.6528 3.9024 2.11331
lfemur -14.066 24.3218 -30.6716
ltibia 35.6961 -0 0
lfoot -38.569 17.1671 0.0199941
ltoes 17.9011 -0 0
rfemur -62.8909 -30.6142 38.2414
rtibia 70.0963 -0 0
rfoot -9.08184 -7.10095 0.497341
rtoes 6.2071 -0 0
lowerback 0.0661454 -4.68105 -6.3698
upperback -1.50183 -6.30663 -0.644854
thorax -0.977329 -3.09018 2.89791
lowerneck -9.89853 -6.64067 -0.628
upperneck 3.0483 -9.18287 6.10743
head 3.02576 -4.34315 1.54801
lclavicle 8.02024e-14 -2.11197e-14 -6.28711e-31
lhumerus -38.4403 -70.7442 121.776
lradius 73.58 -0 0
lwrist 25.147 0 0
lhand -4.38337 3.45945 0.0211658
lfingers 7.12502 -0 0
lthumb 21.3848 32.2882 0.0174658
rclavicle 8.02024e-14 -2.11197e-14 -6.28711e-31
rhumerus -42.2216 -9.4889 -72.7112
rradius 60.9552 -0 0
rwrist -20.1365 0 0
rhand -29.3882 -49.4912 -0.000739584
rfingers 7.12502 -0 0
rthumb -2.72661 -79.4538 -0.00071392
655
root 5.52362 16.132 -2.00898 16.9275 2.84082 2.17447
lfemur -13.9938 24.2849 -30.8491
ltibia 35.6457 -0 0
lfoot -38.6461 16.907 0.0136793
ltoes 17.6363 -0 0
rfemur -63.1955 -30.9065 38.6426
rtibia 70.0854 -0 0
rfoot -9.59154 -8.04561 0.339917
rtoes 6.63238 -0 0
lowerback -0.00888842 -4.70799 -6.43303
upperback -1.52836 -6.33937 -0.696163
thorax -0.959006 -3.10573 2.87522
lowerneck -9.91337 -6.5999 -0.652881
upperneck 2.7256 -9.10892 6.18978
head 2.93815 -4.31446 1.59216
lclavicle 7.95091e-14 -2.20312e-14 -4.30171e-31
lhumerus -39.6066 -71.3406 123.19
lradius 73.9437 -0 0
lwrist 25.2747 0 0
lhand -4.20084 3.57584 0.0144812
lfingers 7.12502 -0 0
lthumb 21.5604 32.388 0.0119499
rclavicle 7.95091e-14 -2.20312e-14 -4.30171e-31
rhumerus -43.8843 -9.77855 -72.5852
rradius 59.6319 -0 0
rwrist -19.1214 0 0
rhand -29.387 -50.1026 -0.000505858
rfingers 7.12502 -0 0
rthumb -2.72545 -80.0652 -0.000488304
656
root 5.51942 16.1152 -1.96134 17.2009 1.77897 2.23049
lfemur -13.9214 24.2482 -31.0266
ltibia 35.5953 -0 0
lfoot -38.7232 16.6469 0.00701451
ltoes 17.3714 -0 0
rfemur -63.5035 -31.197 39.0469
rtibia 70.0745 -0 0
rfoot -10.0986 -8.98882 0.174117
rtoes 7.05766 -0 0
lowerback -0.083893 -4.735 -6.49623
upperback -1.55485 -6.37214 -0.747461
thorax -0.940677 -3.12126 2.85253
lowerneck -9.92823 -6.55913 -0.67777
upperneck 2.40307 -9.03452 6.2717
head 2.85057 -4.28571 1.63626
lclavicle 7.88157e-14 -2.29427e-14 -2.206e-31
lhumerus -40.8567 -71.9271 124.687
lradius 74.3074 -0 0
lwrist 25.4023 0 0
lhand -4.01832 3.6922 0.00742594
lfingers 7.12502 -0 0
lthumb 21.736 32.4879 0.0061279
rclavicle 7.88157e-14 -2.29427e-14 -2.206e-31
rhumerus -45.5491 -10.0645 -72.4506
rradius 58.3085 -0 0
rwrist -18.1062 0 0
rhand -29.3858 -50.714 -0.00025932
rfingers 7.12502 -0 0
rthumb -2.7243 -80.6766 -0.000250322
657
root 5.51521 16.0984 -1.9137 17.4731 0.716853 2.28142
lfemur -13.849 24.2117 -31.2041
ltibia 35.5449 0 0
lfoot -38.8002 16.3869 0
ltoes 17.1066 0 0
rfemur -63.8148 -31.4856 39.4542
rtibia 70.0636 0 0
rfoot -10.6028 -9.93052 0
rtoes 7.48294 0 0
lowerback -0.158868 -4.7621 -6.55939
upperback -1.58132 -6.40492 -0.798745
thorax -0.922341 -3.13679 2.82984
lowerneck -9.94311 -6.51837 -0.702668
upperneck 2.08072 -8.95967 6.35317
head 2.76302 -4.25689 1.68032
lclavicle 7.81224e-14 -2.38542e-14 0
lhumerus -42.1976 -72.5028 126.274
lradius 74.6711 0 0
lwrist 25.5299 0 0
lhand -3.83582 3.80855 0
lfingers 7.12502 0 0
lthumb 21.9116 32.5877 0
rclavicle 7.81224e-14 -2.38542e-14 0
rhumerus -47.2161 -10.3464 -72.3075
rradius 56.9852 0 0
rwrist -17.091 0 0
rhand -29.3846 -51.3254 0
rfingers 7.12502 0 0
rthumb -2.72314 -801.288 0
